<svg xmlns="http://www.w3.org/2000/svg" width="12.25" height="14" viewBox="0 0 12.25 14">
  <path id="Icon_awesome-building" data-name="Icon awesome-building" d="M11.922,13.125h-.547V.656A.656.656,0,0,0,10.719,0H1.531A.656.656,0,0,0,.875.656V13.125H.328A.328.328,0,0,0,0,13.453V14H12.25v-.547A.328.328,0,0,0,11.922,13.125ZM3.5,2.078a.328.328,0,0,1,.328-.328H4.922a.328.328,0,0,1,.328.328V3.172a.328.328,0,0,1-.328.328H3.828A.328.328,0,0,1,3.5,3.172ZM3.5,4.7a.328.328,0,0,1,.328-.328H4.922A.328.328,0,0,1,5.25,4.7V5.8a.328.328,0,0,1-.328.328H3.828A.328.328,0,0,1,3.5,5.8ZM4.922,8.75H3.828A.328.328,0,0,1,3.5,8.422V7.328A.328.328,0,0,1,3.828,7H4.922a.328.328,0,0,1,.328.328V8.422A.328.328,0,0,1,4.922,8.75ZM7,13.125H5.25v-2.3a.328.328,0,0,1,.328-.328H6.672A.328.328,0,0,1,7,10.828Zm1.75-4.7a.328.328,0,0,1-.328.328H7.328A.328.328,0,0,1,7,8.422V7.328A.328.328,0,0,1,7.328,7H8.422a.328.328,0,0,1,.328.328Zm0-2.625a.328.328,0,0,1-.328.328H7.328A.328.328,0,0,1,7,5.8V4.7a.328.328,0,0,1,.328-.328H8.422A.328.328,0,0,1,8.75,4.7Zm0-2.625a.328.328,0,0,1-.328.328H7.328A.328.328,0,0,1,7,3.172V2.078a.328.328,0,0,1,.328-.328H8.422a.328.328,0,0,1,.328.328Z" />
</svg>
