<svg xmlns="http://www.w3.org/2000/svg" width="11.25" height="12.5" viewBox="0 0 11.25 12.5">
  <path id="Icon_material-date-range" data-name="Icon material-date-range" d="M5.625,6.875H4.375v1.25h1.25Zm2.5,0H6.875v1.25h1.25Zm2.5,0H9.375v1.25h1.25ZM11.875,2.5H11.25V1.25H10V2.5H5V1.25H3.75V2.5H3.125A1.244,1.244,0,0,0,1.881,3.75L1.875,12.5a1.25,1.25,0,0,0,1.25,1.25h8.75a1.254,1.254,0,0,0,1.25-1.25V3.75A1.254,1.254,0,0,0,11.875,2.5Zm0,10H3.125V5.625h8.75Z" transform="translate(-1.875 -1.25)" />
</svg>
