<svg xmlns="http://www.w3.org/2000/svg" width="12.001" height="12" viewBox="0 0 12.001 12">
  <path id="factory" d="M12,4.495a.5.5,0,0,0-.853-.35L9,5.993V4.5a.5.5,0,0,0-.853-.35L6,5.994V4.5a.5.5,0,0,0-.852-.35L2.976,6.012,2.5.552A.548.548,0,0,0,1.949,0h-.9A.548.548,0,0,0,.5.552L0,11a1,1,0,0,0,1,1H11a1,1,0,0,0,1-1V4.5ZM4.75,7.717v.565a.469.469,0,0,1-.468.468H3.717a.468.468,0,0,1-.467-.468V7.717a.469.469,0,0,1,.468-.468h.565a.468.468,0,0,1,.467.468Zm3,0v.565a.469.469,0,0,1-.468.468H6.717a.468.468,0,0,1-.467-.468V7.717a.469.469,0,0,1,.468-.468h.565a.468.468,0,0,1,.467.468Zm3,0v.565a.469.469,0,0,1-.468.468H9.717a.468.468,0,0,1-.467-.468V7.717a.469.469,0,0,1,.468-.468h.565a.468.468,0,0,1,.467.468Z" transform="translate(0.001 -0.002)" fill="#fff"/>
</svg>
