<svg xmlns="http://www.w3.org/2000/svg" width="25" height="19.441" viewBox="0 0 25 19.441">
  <path id="Icon_awesome-home" data-name="Icon awesome-home" d="M12.168,6.3l-8,6.59V20a.694.694,0,0,0,.694.694l4.863-.013a.694.694,0,0,0,.691-.694V15.832a.694.694,0,0,1,.694-.694h2.778a.694.694,0,0,1,.694.694v4.151a.694.694,0,0,0,.694.7l4.862.013A.694.694,0,0,0,20.832,20V12.881l-8-6.585a.529.529,0,0,0-.664,0Zm12.639,4.479L21.179,7.784V1.773a.521.521,0,0,0-.521-.521h-2.43a.521.521,0,0,0-.521.521V4.924l-3.886-3.2a2.083,2.083,0,0,0-2.647,0L.188,10.775a.521.521,0,0,0-.069.733l1.107,1.345a.521.521,0,0,0,.734.071L12.168,4.516a.529.529,0,0,1,.664,0l10.209,8.408a.521.521,0,0,0,.733-.069l1.107-1.345a.521.521,0,0,0-.074-.735Z" transform="translate(0.001 -1.252)" />
</svg>
