<svg xmlns="http://www.w3.org/2000/svg" width="14.531" height="14.531" viewBox="0 0 14.531 14.531">
  <path id="Icon_awesome-info-circle" data-name="Icon awesome-info-circle" d="M7.5.234A7.266,7.266,0,1,0,14.766,7.5,7.267,7.267,0,0,0,7.5.234Zm0,3.223a1.23,1.23,0,1,1-1.23,1.23A1.23,1.23,0,0,1,7.5,3.457ZM9.141,10.9a.352.352,0,0,1-.352.352H6.211a.352.352,0,0,1-.352-.352v-.7a.352.352,0,0,1,.352-.352h.352V7.969H6.211a.352.352,0,0,1-.352-.352v-.7a.352.352,0,0,1,.352-.352H8.086a.352.352,0,0,1,.352.352v2.93h.352a.352.352,0,0,1,.352.352Z" transform="translate(-0.234 -0.234)" fill="#5f27cd"/>
</svg>
