<svg xmlns="http://www.w3.org/2000/svg" width="18" height="15.75" viewBox="0 0 18 15.75">
  <path id="Icon_awesome-wallet" data-name="Icon awesome-wallet" d="M16.214,4.5H2.813a.563.563,0,0,1,0-1.125h13.5a.562.562,0,0,0,.563-.562,1.687,1.687,0,0,0-1.687-1.687H2.25A2.25,2.25,0,0,0,0,3.375v11.25a2.25,2.25,0,0,0,2.25,2.25H16.214A1.741,1.741,0,0,0,18,15.188v-9A1.741,1.741,0,0,0,16.214,4.5Zm-1.589,7.313a1.125,1.125,0,1,1,1.125-1.125A1.125,1.125,0,0,1,14.625,11.813Z" transform="translate(0 -1.125)" fill="#bbb"/>
</svg>
